<svg id="visual" viewBox="0 0 900 600" width="900" height="600" xmlns="http://www.w3.org/2000/svg" xmlns:xlink="http://www.w3.org/1999/xlink" version="1.1"><rect x="0" y="0" width="900" height="600" fill="#d09365"></rect><defs><linearGradient id="grad1_0" x1="33.3%" y1="0%" x2="100%" y2="100%"><stop offset="20%" stop-color="#ae7d4e" stop-opacity="1"></stop><stop offset="80%" stop-color="#ae7d4e" stop-opacity="1"></stop></linearGradient></defs><defs><linearGradient id="grad1_1" x1="33.3%" y1="0%" x2="100%" y2="100%"><stop offset="20%" stop-color="#ae7d4e" stop-opacity="1"></stop><stop offset="80%" stop-color="#bf8859" stop-opacity="1"></stop></linearGradient></defs><defs><linearGradient id="grad1_2" x1="33.3%" y1="0%" x2="100%" y2="100%"><stop offset="20%" stop-color="#d09365" stop-opacity="1"></stop><stop offset="80%" stop-color="#bf8859" stop-opacity="1"></stop></linearGradient></defs><defs><linearGradient id="grad2_0" x1="0%" y1="0%" x2="66.7%" y2="100%"><stop offset="20%" stop-color="#ae7d4e" stop-opacity="1"></stop><stop offset="80%" stop-color="#ae7d4e" stop-opacity="1"></stop></linearGradient></defs><defs><linearGradient id="grad2_1" x1="0%" y1="0%" x2="66.7%" y2="100%"><stop offset="20%" stop-color="#bf8859" stop-opacity="1"></stop><stop offset="80%" stop-color="#ae7d4e" stop-opacity="1"></stop></linearGradient></defs><defs><linearGradient id="grad2_2" x1="0%" y1="0%" x2="66.7%" y2="100%"><stop offset="20%" stop-color="#bf8859" stop-opacity="1"></stop><stop offset="80%" stop-color="#d09365" stop-opacity="1"></stop></linearGradient></defs><g transform="translate(900, 0)"><path d="M0 378.6C-22.1 359.5 -44.2 340.4 -66.1 332.5C-88.1 324.6 -110 327.8 -136.6 329.8C-163.3 331.8 -194.7 332.5 -210.3 314.8C-226 297.1 -225.9 260.9 -241.1 241.1C-256.3 221.3 -286.9 217.9 -302.7 202.2C-318.4 186.5 -319.4 158.6 -326.1 135.1C-332.9 111.6 -345.3 92.4 -355 70.6C-364.7 48.8 -371.7 24.4 -378.6 0L0 0Z" fill="#c78d5f"></path><path d="M0 252.4C-14.7 239.7 -29.4 226.9 -44.1 221.7C-58.7 216.4 -73.3 218.6 -91.1 219.9C-108.8 221.2 -129.8 221.7 -140.2 209.9C-150.7 198 -150.6 173.9 -160.7 160.7C-170.9 147.6 -191.3 145.3 -201.8 134.8C-212.3 124.4 -212.9 105.7 -217.4 90.1C-221.9 74.4 -230.2 61.6 -236.7 47.1C-243.2 32.6 -247.8 16.3 -252.4 0L0 0Z" fill="#b68254"></path><path d="M0 126.2C-7.4 119.8 -14.7 113.5 -22 110.8C-29.4 108.2 -36.7 109.3 -45.5 109.9C-54.4 110.6 -64.9 110.8 -70.1 104.9C-75.3 99 -75.3 87 -80.4 80.4C-85.4 73.8 -95.6 72.6 -100.9 67.4C-106.1 62.2 -106.5 52.9 -108.7 45C-111 37.2 -115.1 30.8 -118.3 23.5C-121.6 16.3 -123.9 8.1 -126.2 0L0 0Z" fill="#ae7d4e"></path></g><g transform="translate(0, 600)"><path d="M0 -378.6C23.9 -371.1 47.7 -363.6 71 -357C94.3 -350.4 117 -344.7 140.1 -338.1C163.1 -331.6 186.5 -324.1 209.4 -313.5C232.4 -302.8 255 -289 267.7 -267.7C280.4 -246.4 283.3 -217.7 289.4 -193.3C295.4 -169 304.6 -149.1 310.4 -128.6C316.3 -108.1 318.7 -87.1 329.5 -65.6C340.3 -44 359.5 -22 378.6 0L0 0Z" fill="#c78d5f"></path><path d="M0 -252.4C15.9 -247.4 31.8 -242.4 47.3 -238C62.9 -233.6 78 -229.8 93.4 -225.4C108.7 -221 124.3 -216.1 139.6 -209C154.9 -201.9 170 -192.7 178.5 -178.5C186.9 -164.3 188.9 -145.1 192.9 -128.9C196.9 -112.7 203.1 -99.4 206.9 -85.7C210.8 -72.1 212.5 -58 219.7 -43.7C226.9 -29.4 239.6 -14.7 252.4 0L0 0Z" fill="#b68254"></path><path d="M0 -126.2C8 -123.7 15.9 -121.2 23.7 -119C31.4 -116.8 39 -114.9 46.7 -112.7C54.4 -110.5 62.2 -108 69.8 -104.5C77.5 -100.9 85 -96.3 89.2 -89.2C93.5 -82.1 94.4 -72.6 96.5 -64.4C98.5 -56.3 101.5 -49.7 103.5 -42.9C105.4 -36 106.2 -29 109.8 -21.9C113.4 -14.7 119.8 -7.3 126.2 0L0 0Z" fill="#ae7d4e"></path></g></svg>