<svg id="visual" viewBox="0 0 900 600" width="900" height="600" xmlns="http://www.w3.org/2000/svg" xmlns:xlink="http://www.w3.org/1999/xlink" version="1.1"><rect x="0" y="0" width="900" height="600" fill="#d09365"></rect><defs><linearGradient id="grad1_0" x1="33.3%" y1="100%" x2="100%" y2="0%"><stop offset="20%" stop-color="#704924" stop-opacity="1"></stop><stop offset="80%" stop-color="#704924" stop-opacity="1"></stop></linearGradient></defs><defs><linearGradient id="grad1_1" x1="33.3%" y1="100%" x2="100%" y2="0%"><stop offset="20%" stop-color="#704924" stop-opacity="1"></stop><stop offset="80%" stop-color="#875b33" stop-opacity="1"></stop></linearGradient></defs><defs><linearGradient id="grad1_2" x1="33.3%" y1="100%" x2="100%" y2="0%"><stop offset="20%" stop-color="#9f6d43" stop-opacity="1"></stop><stop offset="80%" stop-color="#875b33" stop-opacity="1"></stop></linearGradient></defs><defs><linearGradient id="grad1_3" x1="33.3%" y1="100%" x2="100%" y2="0%"><stop offset="20%" stop-color="#9f6d43" stop-opacity="1"></stop><stop offset="80%" stop-color="#b78054" stop-opacity="1"></stop></linearGradient></defs><defs><linearGradient id="grad1_4" x1="33.3%" y1="100%" x2="100%" y2="0%"><stop offset="20%" stop-color="#d09365" stop-opacity="1"></stop><stop offset="80%" stop-color="#b78054" stop-opacity="1"></stop></linearGradient></defs><defs><linearGradient id="grad2_0" x1="0%" y1="100%" x2="66.7%" y2="0%"><stop offset="20%" stop-color="#704924" stop-opacity="1"></stop><stop offset="80%" stop-color="#704924" stop-opacity="1"></stop></linearGradient></defs><defs><linearGradient id="grad2_1" x1="0%" y1="100%" x2="66.7%" y2="0%"><stop offset="20%" stop-color="#875b33" stop-opacity="1"></stop><stop offset="80%" stop-color="#704924" stop-opacity="1"></stop></linearGradient></defs><defs><linearGradient id="grad2_2" x1="0%" y1="100%" x2="66.7%" y2="0%"><stop offset="20%" stop-color="#875b33" stop-opacity="1"></stop><stop offset="80%" stop-color="#9f6d43" stop-opacity="1"></stop></linearGradient></defs><defs><linearGradient id="grad2_3" x1="0%" y1="100%" x2="66.7%" y2="0%"><stop offset="20%" stop-color="#b78054" stop-opacity="1"></stop><stop offset="80%" stop-color="#9f6d43" stop-opacity="1"></stop></linearGradient></defs><defs><linearGradient id="grad2_4" x1="0%" y1="100%" x2="66.7%" y2="0%"><stop offset="20%" stop-color="#b78054" stop-opacity="1"></stop><stop offset="80%" stop-color="#d09365" stop-opacity="1"></stop></linearGradient></defs><g transform="translate(900, 600)"><path d="M-459.7 0C-464 -44.2 -468.2 -88.3 -444 -119C-419.8 -149.6 -367.2 -166.7 -345.5 -199.5C-323.9 -232.3 -333.3 -280.7 -318.9 -318.9C-304.5 -357.1 -266.2 -385.2 -225.5 -390.6C-184.8 -395.9 -141.5 -378.6 -103.5 -386.4C-65.5 -394.1 -32.8 -426.9 0 -459.7L0 0Z" fill="#c3895c"></path><path d="M-367.8 0C-371.2 -35.3 -374.6 -70.7 -355.2 -95.2C-335.9 -119.7 -293.7 -133.4 -276.4 -159.6C-259.1 -185.8 -266.7 -224.5 -255.1 -255.1C-243.6 -285.7 -213 -308.2 -180.4 -312.5C-147.8 -316.8 -113.2 -302.9 -82.8 -309.1C-52.4 -315.3 -26.2 -341.5 0 -367.8L0 0Z" fill="#ab764c"></path><path d="M-275.8 0C-278.4 -26.5 -280.9 -53 -266.4 -71.4C-251.9 -89.8 -220.3 -100 -207.3 -119.7C-194.3 -139.4 -200 -168.4 -191.3 -191.3C-182.7 -214.3 -159.7 -231.1 -135.3 -234.3C-110.9 -237.6 -84.9 -227.2 -62.1 -231.8C-39.3 -236.5 -19.7 -256.1 0 -275.8L0 0Z" fill="#93643b"></path><path d="M-183.9 0C-185.6 -17.7 -187.3 -35.3 -177.6 -47.6C-167.9 -59.8 -146.9 -66.7 -138.2 -79.8C-129.6 -92.9 -133.3 -112.3 -127.6 -127.6C-121.8 -142.9 -106.5 -154.1 -90.2 -156.2C-73.9 -158.4 -56.6 -151.5 -41.4 -154.5C-26.2 -157.6 -13.1 -170.8 0 -183.9L0 0Z" fill="#7b522c"></path><path d="M-91.9 0C-92.8 -8.8 -93.6 -17.7 -88.8 -23.8C-84 -29.9 -73.4 -33.3 -69.1 -39.9C-64.8 -46.5 -66.7 -56.1 -63.8 -63.8C-60.9 -71.4 -53.2 -77 -45.1 -78.1C-37 -79.2 -28.3 -75.7 -20.7 -77.3C-13.1 -78.8 -6.6 -85.4 0 -91.9L0 0Z" fill="#704924"></path></g><g transform="translate(0, 0)"><path d="M459.7 0C421.6 30.9 383.5 61.9 378.6 101.5C373.8 141 402.1 189.3 398.1 229.9C394.1 270.4 357.8 303.3 317.5 317.5C277.1 331.6 232.8 327 200.5 347.3C168.2 367.6 148.1 412.7 116.7 435.6C85.3 458.5 42.7 459.1 0 459.7L0 0Z" fill="#c3895c"></path><path d="M367.8 0C337.3 24.7 306.8 49.5 302.9 81.2C299 112.8 321.7 151.4 318.5 183.9C315.3 216.3 286.3 242.7 254 254C221.7 265.3 186.2 261.6 160.4 277.8C134.6 294 118.5 330.2 93.4 348.5C68.3 366.8 34.1 367.3 0 367.8L0 0Z" fill="#ab764c"></path><path d="M275.8 0C253 18.6 230.1 37.1 227.2 60.9C224.3 84.6 241.3 113.6 238.9 137.9C236.5 162.3 214.7 182 190.5 190.5C166.3 199 139.7 196.2 120.3 208.4C100.9 220.5 88.9 247.6 70 261.4C51.2 275.1 25.6 275.5 0 275.8L0 0Z" fill="#93643b"></path><path d="M183.9 0C168.6 12.4 153.4 24.7 151.5 40.6C149.5 56.4 160.8 75.7 159.2 91.9C157.7 108.2 143.1 121.3 127 127C110.9 132.7 93.1 130.8 80.2 138.9C67.3 147 59.2 165.1 46.7 174.3C34.1 183.4 17.1 183.6 0 183.9L0 0Z" fill="#7b522c"></path><path d="M91.9 0C84.3 6.2 76.7 12.4 75.7 20.3C74.8 28.2 80.4 37.9 79.6 46C78.8 54.1 71.6 60.7 63.5 63.5C55.4 66.3 46.6 65.4 40.1 69.5C33.6 73.5 29.6 82.5 23.3 87.1C17.1 91.7 8.5 91.8 0 91.9L0 0Z" fill="#704924"></path></g></svg>