<svg id="visual" viewBox="0 0 900 600" width="900" height="600" xmlns="http://www.w3.org/2000/svg" xmlns:xlink="http://www.w3.org/1999/xlink" version="1.1"><rect x="0" y="0" width="900" height="600" fill="#8f5327"></rect><defs><linearGradient id="grad1_0" x1="33.3%" y1="100%" x2="100%" y2="0%"><stop offset="20%" stop-color="#603d1b" stop-opacity="1"></stop><stop offset="80%" stop-color="#603d1b" stop-opacity="1"></stop></linearGradient></defs><defs><linearGradient id="grad1_1" x1="33.3%" y1="100%" x2="100%" y2="0%"><stop offset="20%" stop-color="#603d1b" stop-opacity="1"></stop><stop offset="80%" stop-color="#69411d" stop-opacity="1"></stop></linearGradient></defs><defs><linearGradient id="grad1_2" x1="33.3%" y1="100%" x2="100%" y2="0%"><stop offset="20%" stop-color="#72461f" stop-opacity="1"></stop><stop offset="80%" stop-color="#69411d" stop-opacity="1"></stop></linearGradient></defs><defs><linearGradient id="grad1_3" x1="33.3%" y1="100%" x2="100%" y2="0%"><stop offset="20%" stop-color="#72461f" stop-opacity="1"></stop><stop offset="80%" stop-color="#7c4a22" stop-opacity="1"></stop></linearGradient></defs><defs><linearGradient id="grad1_4" x1="33.3%" y1="100%" x2="100%" y2="0%"><stop offset="20%" stop-color="#854f24" stop-opacity="1"></stop><stop offset="80%" stop-color="#7c4a22" stop-opacity="1"></stop></linearGradient></defs><defs><linearGradient id="grad1_5" x1="33.3%" y1="100%" x2="100%" y2="0%"><stop offset="20%" stop-color="#854f24" stop-opacity="1"></stop><stop offset="80%" stop-color="#8f5327" stop-opacity="1"></stop></linearGradient></defs><defs><linearGradient id="grad2_0" x1="0%" y1="100%" x2="66.7%" y2="0%"><stop offset="20%" stop-color="#603d1b" stop-opacity="1"></stop><stop offset="80%" stop-color="#603d1b" stop-opacity="1"></stop></linearGradient></defs><defs><linearGradient id="grad2_1" x1="0%" y1="100%" x2="66.7%" y2="0%"><stop offset="20%" stop-color="#69411d" stop-opacity="1"></stop><stop offset="80%" stop-color="#603d1b" stop-opacity="1"></stop></linearGradient></defs><defs><linearGradient id="grad2_2" x1="0%" y1="100%" x2="66.7%" y2="0%"><stop offset="20%" stop-color="#69411d" stop-opacity="1"></stop><stop offset="80%" stop-color="#72461f" stop-opacity="1"></stop></linearGradient></defs><defs><linearGradient id="grad2_3" x1="0%" y1="100%" x2="66.7%" y2="0%"><stop offset="20%" stop-color="#7c4a22" stop-opacity="1"></stop><stop offset="80%" stop-color="#72461f" stop-opacity="1"></stop></linearGradient></defs><defs><linearGradient id="grad2_4" x1="0%" y1="100%" x2="66.7%" y2="0%"><stop offset="20%" stop-color="#7c4a22" stop-opacity="1"></stop><stop offset="80%" stop-color="#854f24" stop-opacity="1"></stop></linearGradient></defs><defs><linearGradient id="grad2_5" x1="0%" y1="100%" x2="66.7%" y2="0%"><stop offset="20%" stop-color="#8f5327" stop-opacity="1"></stop><stop offset="80%" stop-color="#854f24" stop-opacity="1"></stop></linearGradient></defs><g transform="translate(900, 600)"><path d="M-540.8 0C-502.5 -58.2 -464.2 -116.5 -443.5 -183.7C-422.7 -250.9 -419.5 -327.1 -382.4 -382.4C-345.4 -437.8 -274.5 -472.3 -205.1 -495.2C-135.7 -518.1 -67.9 -529.5 0 -540.8L0 0Z" fill="#8a5126"></path><path d="M-450.7 0C-418.8 -48.5 -386.9 -97.1 -369.6 -153.1C-352.2 -209.1 -349.6 -272.6 -318.7 -318.7C-287.8 -364.8 -228.7 -393.6 -170.9 -412.7C-113.1 -431.8 -56.6 -441.2 0 -450.7L0 0Z" fill="#804c23"></path><path d="M-360.6 0C-335 -38.8 -309.5 -77.7 -295.6 -122.5C-281.8 -167.3 -279.7 -218.1 -255 -255C-230.3 -291.8 -183 -314.8 -136.7 -330.1C-90.5 -345.4 -45.2 -353 0 -360.6L0 0Z" fill="#774820"></path><path d="M-270.4 0C-251.3 -29.1 -232.1 -58.2 -221.7 -91.8C-211.3 -125.4 -209.7 -163.5 -191.2 -191.2C-172.7 -218.9 -137.2 -236.1 -102.6 -247.6C-67.9 -259.1 -33.9 -264.7 0 -270.4L0 0Z" fill="#6e441e"></path><path d="M-180.3 0C-167.5 -19.4 -154.7 -38.8 -147.8 -61.2C-140.9 -83.6 -139.8 -109 -127.5 -127.5C-115.1 -145.9 -91.5 -157.4 -68.4 -165.1C-45.2 -172.7 -22.6 -176.5 0 -180.3L0 0Z" fill="#643f1c"></path><path d="M-90.1 0C-83.8 -9.7 -77.4 -19.4 -73.9 -30.6C-70.4 -41.8 -69.9 -54.5 -63.7 -63.7C-57.6 -73 -45.7 -78.7 -34.2 -82.5C-22.6 -86.4 -11.3 -88.2 0 -90.1L0 0Z" fill="#603d1b"></path></g><g transform="translate(0, 0)"><path d="M540.8 0C535.1 72.7 529.4 145.5 499.7 207C469.9 268.5 416.1 318.8 362.7 362.7C309.3 406.7 256.3 444.4 195.9 473C135.5 501.7 67.8 521.2 0 540.8L0 0Z" fill="#8a5126"></path><path d="M450.7 0C445.9 60.6 441.2 121.2 416.4 172.5C391.6 223.7 346.8 265.6 302.3 302.3C257.8 338.9 213.6 370.3 163.3 394.2C112.9 418 56.5 434.4 0 450.7L0 0Z" fill="#804c23"></path><path d="M360.6 0C356.7 48.5 352.9 97 333.1 138C313.3 179 277.4 212.5 241.8 241.8C206.2 271.2 170.9 296.3 130.6 315.4C90.4 334.4 45.2 347.5 0 360.6L0 0Z" fill="#774820"></path><path d="M270.4 0C267.6 36.4 264.7 72.7 249.8 103.5C235 134.2 208.1 159.4 181.4 181.4C154.7 203.4 128.2 222.2 98 236.5C67.8 250.8 33.9 260.6 0 270.4L0 0Z" fill="#6e441e"></path><path d="M180.3 0C178.4 24.2 176.5 48.5 166.6 69C156.6 89.5 138.7 106.3 120.9 120.9C103.1 135.6 85.4 148.1 65.3 157.7C45.2 167.2 22.6 173.7 0 180.3L0 0Z" fill="#643f1c"></path><path d="M90.1 0C89.2 12.1 88.2 24.2 83.3 34.5C78.3 44.7 69.4 53.1 60.5 60.5C51.6 67.8 42.7 74.1 32.7 78.8C22.6 83.6 11.3 86.9 0 90.1L0 0Z" fill="#603d1b"></path></g></svg>