<svg id="visual" viewBox="0 0 900 600" width="900" height="600" xmlns="http://www.w3.org/2000/svg" xmlns:xlink="http://www.w3.org/1999/xlink" version="1.1"><rect x="0" y="0" width="900" height="600" fill="#5a3d21"></rect><path d="M0 412L11.5 428.5C23 445 46 478 69 484.3C92 490.7 115 470.3 138.2 450.8C161.3 431.3 184.7 412.7 207.8 409.2C231 405.7 254 417.3 277 430.7C300 444 323 459 346 461.7C369 464.3 392 454.7 415.2 461C438.3 467.3 461.7 489.7 484.8 492.5C508 495.3 531 478.7 554 471.5C577 464.3 600 466.7 623 465.7C646 464.7 669 460.3 692.2 458.5C715.3 456.7 738.7 457.3 761.8 463C785 468.7 808 479.3 831 490.2C854 501 877 512 888.5 517.5L900 523L900 601L888.5 601C877 601 854 601 831 601C808 601 785 601 761.8 601C738.7 601 715.3 601 692.2 601C669 601 646 601 623 601C600 601 577 601 554 601C531 601 508 601 484.8 601C461.7 601 438.3 601 415.2 601C392 601 369 601 346 601C323 601 300 601 277 601C254 601 231 601 207.8 601C184.7 601 161.3 601 138.2 601C115 601 92 601 69 601C46 601 23 601 11.5 601L0 601Z" fill="#937446" stroke-linecap="round" stroke-linejoin="miter"></path></svg>